<?xml version="1.0" encoding="utf-8"?>
<!-- Generator: Adobe Illustrator 18.1.1, SVG Export Plug-In . SVG Version: 6.00 Build 0)  -->
<!DOCTYPE svg PUBLIC "-//W3C//DTD SVG 1.1//EN" "http://www.w3.org/Graphics/SVG/1.1/DTD/svg11.dtd">
<svg version="1.1" id="Layer_1" xmlns="http://www.w3.org/2000/svg" xmlns:xlink="http://www.w3.org/1999/xlink" x="0px" y="0px"
	 width="200px" height="200px" viewBox="0 0 200 200" enable-background="new 0 0 200 200" xml:space="preserve">
<path fill="#FFFFFF" d="M99.9,195.1C46.8,195,4.8,152.7,5,99.5C5.1,47.1,47.8,4.8,100.5,4.9c52.4,0.1,94.7,42.9,94.5,95.5
	C194.8,153.3,152.7,195.2,99.9,195.1z M124.3,47.5c-10.6,0.5-21-2.3-30,3.9c-10.7,7.4-7.7,19.3-8.7,29.8C82,81.6,79,81.8,75.8,82
	c0,6.3,0,12.3,0,18.3c3.5,0.2,6.5,0.4,10.1,0.6c0,12.1,0,23.9,0,35.6c0,17.4,0,17.3,17.7,16.6c4-0.2,5.3-1.5,5.3-5.4
	c-0.2-12.9-0.1-25.8-0.1-38.7c0-2.7,0-5.5,0-8.8c5.4,0,9.6,0,14.2,0c0.6-6.3,1.2-12.1,1.9-18.7c-5.9,0-10.8,0-15.6,0
	c-1.4-12.9-1.4-12.9,15-15.9C124.3,60,124.3,54.2,124.3,47.5z"/>
</svg>
