<?xml version="1.0" encoding="utf-8"?>
<!-- Generator: Adobe Illustrator 18.1.1, SVG Export Plug-In . SVG Version: 6.00 Build 0)  -->
<!DOCTYPE svg PUBLIC "-//W3C//DTD SVG 1.1//EN" "http://www.w3.org/Graphics/SVG/1.1/DTD/svg11.dtd">
<svg version="1.1" id="Layer_1" xmlns="http://www.w3.org/2000/svg" xmlns:xlink="http://www.w3.org/1999/xlink" x="0px" y="0px"
	 width="200px" height="200px" viewBox="0 0 200 200" enable-background="new 0 0 200 200" xml:space="preserve">
<g>
	<path fill="#FFFFFF" d="M117.7,197.8c2.4-2.8,4.7-5.3,6.6-8c10.1-14.6,9.8-33.8-6-47.4c-5.4-4.6-11-9-16.4-13.6
		c-5.9-4.9-6.4-11.1-1.3-16.9c2-2.3,4.4-4.2,6.7-6.2c5.7-4.8,11-9.8,13.4-17c4.9-14.6,2.4-27.8-8.2-39.2c-1.5-1.6-2.9-3.4-4.2-5
		c1.7,0,4-0.2,6.3,0c4.2,0.4,7.9-0.6,11.4-3c2.9-2,6.1-3.5,9.1-5.7c-0.6-0.1-1.2-0.2-1.8-0.2c-15.2,0-30.4-0.1-45.6,0
		C78,35.8,68.2,36.9,59,40.9c-14.6,6.3-24.2,16.9-27.1,32.8c-3.3,18.4,7.9,36,26,41.2c5,1.4,10.1,2,15.2,1.5c1.2-0.1,2.4,0,3.6,0
		c-2.4,11.5-2.4,11.5,4.7,24.1c-3,0.3-5.8,0.5-8.6,0.8c-11.9,1.2-23.6,3.3-34.2,9.5c-2.8,1.6-5.5,3.5-7.9,5.7
		c-2.4,2.1-4.4,4.8-6.7,7.4c-8.2-9.6-14.3-20.6-18.3-32.7c-6.6-20.3-6.8-40.7-0.4-61C18.5,28.6,56.5,0.8,99.8,0.6
		c43.5-0.3,78.6,27.5,92,60.9c-6.3,0-12.6,0-19.1,0c0-0.8-0.1-1.6-0.1-2.4c0-7.1-0.1-14.2,0-21.3c0-1.6-0.5-2.2-2.1-2.1
		c-2.3,0.1-4.6,0.1-6.9,0c-1.9-0.1-2.5,0.5-2.5,2.4c0.1,6.9,0,13.8,0,20.6c0,0.9,0,1.7,0,2.9c-8.6,0-17,0-25.6,0c0,3.8,0,7.4,0,11.3
		c0.9,0,1.7,0,2.5,0c6.9,0,13.8,0.1,20.6,0c1.9,0,2.5,0.4,2.5,2.4c-0.1,7.2,0,14.3-0.1,21.5c0,1.9,0.6,2.6,2.5,2.5
		c2.3-0.1,4.6-0.1,6.9,0c1.6,0.1,2.1-0.5,2.1-2.1c-0.1-7.2,0-14.5-0.1-21.7c0-2,0.6-2.6,2.6-2.6c6.2,0.1,12.5,0.1,18.7,0
		c1.6,0,2.3,0.4,2.7,2c7.8,33.1,1.3,63.1-20.5,89.3c-14.7,17.8-33.8,28.6-56.4,33.3C119,197.6,118.5,197.7,117.7,197.8z"/>
	<path fill="#FFFFFF" d="M84.9,147.5c3.3-0.8,6.5,0.7,9.6,3.3c4.8,4.1,9.9,7.8,14.4,12.2c10.5,10.3,8,29-7.4,36.1
		c-0.7,0.3-1.5,0.5-2.3,0.5c-20.8-0.4-39.8-6.5-56.7-18.7c-0.8-0.5-1.4-1.7-1.5-2.6c-1.5-11.8,4.3-20.8,16.3-25.8
		C64.3,149.3,73.9,147.6,84.9,147.5z"/>
	<path fill="#FFFFFF" d="M102.8,85.6c-0.6,3.8-0.8,6.8-1.6,9.6c-3.7,12.7-19.8,18.4-31.4,11.2c-6.3-3.9-10.2-9.7-13-16.4
		c-3.9-9.5-6-19.3-3.8-29.6c3.3-15.5,21.4-21.8,33.7-11.7c6.8,5.5,10.6,13,12.9,21.1C101.2,75.2,101.9,80.8,102.8,85.6z"/>
</g>
</svg>
