<?xml version="1.0" encoding="utf-8"?>
<!-- Generator: Adobe Illustrator 18.1.1, SVG Export Plug-In . SVG Version: 6.00 Build 0)  -->
<!DOCTYPE svg PUBLIC "-//W3C//DTD SVG 1.1//EN" "http://www.w3.org/Graphics/SVG/1.1/DTD/svg11.dtd">
<svg version="1.1" id="Layer_1" xmlns="http://www.w3.org/2000/svg" xmlns:xlink="http://www.w3.org/1999/xlink" x="0px" y="0px"
	 width="43.5px" height="37.3px" viewBox="0 0 43.5 37.3" style="enable-background:new 0 0 43.5 37.3;" xml:space="preserve">
<style type="text/css">
	.st0{fill:#FFFFFF;}
</style>
<g>
	<g>
		<path class="st0" d="M5.9,33.6c10.4,0,20.7,0,31.1,0c3.9,0,3.9-6,0-6c-10.4,0-20.7,0-31.1,0C2,27.6,2,33.6,5.9,33.6L5.9,33.6z"/>
	</g>
	<g>
		<path class="st0" d="M5.9,21.3c10.4,0,20.7,0,31.1,0c3.9,0,3.9-6,0-6c-10.4,0-20.7,0-31.1,0C2,15.3,2,21.3,5.9,21.3L5.9,21.3z"/>
	</g>
	<g>
		<path class="st0" d="M5.9,8.9c10.4,0,20.7,0,31.1,0c3.9,0,3.9-6,0-6C26.6,3,16.2,3,5.9,3C2,3,2,8.9,5.9,8.9L5.9,8.9z"/>
	</g>
</g>
<g>
</g>
<g>
</g>
<g>
</g>
<g>
</g>
<g>
</g>
<g>
</g>
<g>
</g>
<g>
</g>
<g>
</g>
<g>
</g>
<g>
</g>
<g>
</g>
<g>
</g>
<g>
</g>
<g>
</g>
</svg>
