<?xml version="1.0" encoding="utf-8"?>
<!-- Generator: Adobe Illustrator 18.1.1, SVG Export Plug-In . SVG Version: 6.00 Build 0)  -->
<!DOCTYPE svg PUBLIC "-//W3C//DTD SVG 1.1//EN" "http://www.w3.org/Graphics/SVG/1.1/DTD/svg11.dtd">
<svg version="1.1" id="Layer_1" xmlns="http://www.w3.org/2000/svg" xmlns:xlink="http://www.w3.org/1999/xlink" x="0px" y="0px"
	 width="175.4px" height="173.6px" viewBox="0 0 175.4 173.6" style="enable-background:new 0 0 175.4 173.6;" xml:space="preserve"
	>
<style type="text/css">
	.st0{fill:#4D0000;stroke:#FFFFFF;stroke-width:9;stroke-miterlimit:10;}
	.st1{fill:#FBC469;}
	.st2{fill:#FFFFFF;}
</style>
<circle class="st0" cx="90.8" cy="88.9" r="77.4"/>
<path class="st1" d="M132,88.7c0.1,15.4-8.3,29.2-20.5,36.8L89.4,88.7c-1.3-4.9-2.6-12.1-2.1-20.8c0.6-9.4,3-17,5.1-21.8
	C114.7,48.2,131.8,66.9,132,88.7z"/>
<g>
	<path class="st2" d="M37.5,109.7c-2.8-1.8-5.4-4-7.5-6.6L44,91.8c3,3.7,8.4,5.6,13.1,4.6c4.7-1,8.7-5,9.9-9.7
		c0.3-1.2,0.5-2.6,0.6-4.2c0.4-3.3,0.9-7.5,3-11.6c3.4-6.8,10.3-11.6,18.8-13.2c7.2-1.4,14.3-0.4,20.4,0.6L106.8,76
		c-4.8-0.8-9.8-1.5-14.2-0.6c-2.9,0.5-5.3,2-6.1,3.7c-0.6,1.3-0.9,3.4-1.2,5.7c-0.2,1.9-0.5,4-1,6.2c-2.7,11.2-12.1,20.4-23.3,23
		C53,115.6,44.4,114,37.5,109.7z"/>
</g>
<path class="st1" d="M111.5,125.5c-5,3.1-10.6,5.2-16.5,5.9c-18.2,2.4-35-8.2-42.7-22.4c-0.4-0.8-9.3-17.7-2.7-35.6
	c1.1-3.1,2.5-5.5,3.6-7.2c5.1,1.5,11.8,3.9,18.9,8.3c7.9,4.8,13.5,10.1,17.3,14.2L111.5,125.5z"/>
<g>
</g>
<g>
</g>
<g>
</g>
<g>
</g>
<g>
</g>
<g>
</g>
<g>
</g>
<g>
</g>
<g>
</g>
<g>
</g>
<g>
</g>
<g>
</g>
<g>
</g>
<g>
</g>
<g>
</g>
</svg>
