<?xml version="1.0" encoding="utf-8"?>
<!-- Generator: Adobe Illustrator 18.1.1, SVG Export Plug-In . SVG Version: 6.00 Build 0)  -->
<!DOCTYPE svg PUBLIC "-//W3C//DTD SVG 1.1//EN" "http://www.w3.org/Graphics/SVG/1.1/DTD/svg11.dtd">
<svg version="1.1" id="Layer_1" xmlns="http://www.w3.org/2000/svg" xmlns:xlink="http://www.w3.org/1999/xlink" x="0px" y="0px"
	 width="43.5px" height="37.3px" viewBox="0 0 43.5 37.3" style="enable-background:new 0 0 43.5 37.3;" xml:space="preserve">
<style type="text/css">
	.st0{fill:#FFFFFF;}
</style>
<g>
	<g>
		<path class="st0" d="M8.3,9.8c7.3,7.3,14.7,14.7,22,22c2.7,2.7,7-1.5,4.2-4.2c-7.3-7.3-14.7-14.7-22-22C9.8,2.8,5.6,7,8.3,9.8
			L8.3,9.8z"/>
	</g>
	<g>
		<path class="st0" d="M30.3,5.5c-7.3,7.3-14.7,14.7-22,22c-2.7,2.7,1.5,7,4.2,4.2c7.3-7.3,14.7-14.7,22-22C37.2,7,33,2.8,30.3,5.5
			L30.3,5.5z"/>
	</g>
</g>
<g>
</g>
<g>
</g>
<g>
</g>
<g>
</g>
<g>
</g>
<g>
</g>
<g>
</g>
<g>
</g>
<g>
</g>
<g>
</g>
<g>
</g>
<g>
</g>
<g>
</g>
<g>
</g>
<g>
</g>
</svg>
