<?xml version="1.0" encoding="utf-8"?>
<!-- Generator: Adobe Illustrator 18.1.1, SVG Export Plug-In . SVG Version: 6.00 Build 0)  -->
<!DOCTYPE svg PUBLIC "-//W3C//DTD SVG 1.1//EN" "http://www.w3.org/Graphics/SVG/1.1/DTD/svg11.dtd">
<svg version="1.1" id="Layer_1" xmlns="http://www.w3.org/2000/svg" xmlns:xlink="http://www.w3.org/1999/xlink" x="0px" y="0px"
	 width="200px" height="200px" viewBox="0 0 200 200" enable-background="new 0 0 200 200" xml:space="preserve">
<path fill="#FFFFFF" d="M100,1.1c1.4,0,2.9,0,4.3,0c0.1,0.2,0.2,0.1,0.3,0.1c5.6,0.3,11,1,16.5,2.3C136,7,149.4,13.9,161.2,24.2
	c10.3,8.9,18.4,19.7,24.4,32.2c4.9,10.3,7.9,21.1,9.2,32.5c0.1,1.4,0.2,2.8,0.3,4.1c0.1,1.5,0.2,3,0.2,4.5
	c0.1,6.3-0.3,12.6-1.3,18.9c-1.1,6.9-2.9,13.6-5.4,20.1c-4.1,10.8-9.9,20.5-17.2,29.1c-8.2,9.6-17.8,17.2-28.7,22.9
	c-12.4,6.4-25.5,9.9-39.3,10.4c-2.9,0.1-5.8,0.1-8.7-0.1c-5.3-0.4-10.6-1.1-15.9-2.3c-12.2-2.9-23.5-8.1-33.8-15.7
	c-13.7-10.1-24.2-23.1-31.4-39C8,129.4,5,116.4,4.7,102.7c0-1.9,0-3.9,0-5.8c0-1.4,0.1-2.8,0.2-4.2c0.3-3.6,0.7-7.1,1.3-10.7
	c1.7-9.7,4.8-18.8,9.1-27.5c6.4-12.7,15-23.4,25.7-32.2c9.2-7.5,19.3-13,30.4-16.7c5.8-1.9,11.8-3.2,17.9-3.9c2.3-0.3,4.6-0.5,7-0.5
	c0.9,0,1.9,0,2.8,0C99.4,1.2,99.7,1.2,100,1.1z M110.7,100.2c2.7-0.1,6.1,0.2,9.5-0.1c1.5-0.1,2.9-0.5,4.2-1.1
	c1.9-0.9,3.6-2.2,5-3.9c0.9-1,1.6-2.1,2.2-3.3c1.2-2.4,1.7-5,1.6-7.7c-0.1-1.6-0.3-3.2-0.8-4.7c-0.7-2.2-2-4-3.5-5.7
	c-0.8-0.8-1.7-1.6-2.6-2.2c-2.2-1.5-4.6-2.2-7.2-2.3c-6-0.1-12,0-17.9,0c-0.5,0-0.6-0.1-0.6-0.6c0-3.8,0-7.6,0-11.4
	c0-1.9,0.1-3.9-0.2-5.8c-0.2-1.3-0.5-2.5-0.9-3.6c-1.1-2.5-2.6-4.6-4.7-6.3c-2.5-2-5.3-3-8.5-3.2c-0.8,0-1.7,0.1-2.5,0.2
	c-1.4,0.2-2.8,0.6-4.1,1.3c-1.9,1-3.5,2.3-4.8,3.9c-0.9,1.1-1.6,2.2-2.2,3.4c-1,2.1-1.5,4.4-1.5,6.8c0,20,0,40.1,0,60.1
	c0,0.8,0,1.6,0.1,2.4c0.1,1.7,0.1,3.5,0.3,5.2c0.2,1.1,0.2,2.2,0.5,3.3c0.5,2.2,1,4.4,1.7,6.5c1.2,3.5,2.8,6.7,4.7,9.8
	c1.4,2.2,3,4.2,4.8,6.1c1.5,1.6,3.1,3.2,4.8,4.6c2.5,2,5,3.9,7.9,5.3c1.8,0.9,3.7,1.8,5.6,2.4c2.2,0.7,4.5,1.3,6.8,1.7
	c2.1,0.3,4.1,0.5,6.2,0.5c1.6,0,3.3,0,4.9,0c1.3,0,2.5-0.2,3.7-0.6c3.4-1.1,6-3.3,7.9-6.3c1.2-1.8,1.9-3.8,2.2-6
	c0.1-0.8,0.2-1.7,0.2-2.6c0-0.7,0-1.5-0.1-2.2c-0.2-1.3-0.5-2.5-1-3.7c-1.1-2.6-2.7-4.7-4.8-6.4c-2.4-1.9-5.1-3-8.2-3
	c-2.1,0-4.2,0-6.3-0.2c-1.3-0.2-2.6-0.6-3.8-1.1c-2.2-1.1-4.1-2.7-5.6-4.7c-2-2.6-3-5.7-3.1-9.1c-0.1-5,0-10,0-15
	c0-0.4,0.1-0.5,0.5-0.5C103.8,100.3,106.9,100.2,110.7,100.2z"/>
</svg>
